<svg xmlns="http://www.w3.org/2000/svg" xmlns:xlink="http://www.w3.org/1999/xlink" width="246.59" height="82.617" viewBox="0 0 246.59 82.617">
  <defs>
    <filter id="Rectangle_3" x="0" y="0" width="246.59" height="82.617" filterUnits="userSpaceOnUse">
      <feOffset dx="8" dy="8" input="SourceAlpha"/>
      <feGaussianBlur stdDeviation="7.5" result="blur"/>
      <feFlood flood-opacity="0.059"/>
      <feComposite operator="in" in2="blur"/>
      <feComposite in="SourceGraphic"/>
    </filter>
    <filter id="Rectangle_4" x="5.5" y="8.5" width="27.646" height="55.617" filterUnits="userSpaceOnUse">
      <feOffset dy="3" input="SourceAlpha"/>
      <feGaussianBlur stdDeviation="3" result="blur-2"/>
      <feFlood flood-opacity="0.161"/>
      <feComposite operator="in" in2="blur-2"/>
      <feComposite in="SourceGraphic"/>
    </filter>
  </defs>
  <g id="Group_2" data-name="Group 2" transform="translate(14.5 14.5)">
    <g transform="matrix(1, 0, 0, 1, -14.5, -14.5)" filter="url(#Rectangle_3)">
      <rect id="Rectangle_3-2" data-name="Rectangle 3" width="201.59" height="37.617" rx="5" transform="translate(14.5 14.5)" fill="#fff"/>
    </g>
    <g transform="matrix(1, 0, 0, 1, -14.5, -14.5)" filter="url(#Rectangle_4)">
      <path id="Rectangle_4-2" data-name="Rectangle 4" d="M5,0H9.645a0,0,0,0,1,0,0V37.617a0,0,0,0,1,0,0H5a5,5,0,0,1-5-5V5A5,5,0,0,1,5,0Z" transform="translate(14.5 14.5)" fill="#ffbe29"/>
    </g>
    <g id="calendar_1_" data-name="calendar (1)" transform="translate(19.291 6.752)">
      <g id="Circle_Grid" data-name="Circle Grid" transform="translate(0 0)">
        <circle id="Ellipse_2" data-name="Ellipse 2" cx="12.057" cy="12.057" r="12.057" transform="translate(0)" fill="#ffbe29"/>
      </g>
      <g id="icon" transform="translate(4.325 4.25)">
        <path id="Path_14" data-name="Path 14" d="M23.392,46.407V56.753a.905.905,0,0,0,.905.905H38.082a.905.905,0,0,0,.905-.905V46.407Z" transform="translate(-23.392 -41.912)" fill="#eeefee"/>
        <path id="Path_15" data-name="Path 15" d="M23.392,29.975V32.4h15.6V29.975a.905.905,0,0,0-.905-.905H24.3A.905.905,0,0,0,23.392,29.975Z" transform="translate(-23.392 -27.904)" fill="#2cbfae"/>
        <circle id="Ellipse_3" data-name="Ellipse 3" cx="0.827" cy="0.827" r="0.827" transform="translate(2.435 1.813)" fill="#eeefee"/>
        <circle id="Ellipse_4" data-name="Ellipse 4" cx="0.827" cy="0.827" r="0.827" transform="translate(11.506 1.813)" fill="#eeefee"/>
        <g id="Group_2-2" data-name="Group 2" transform="translate(2.786)">
          <path id="Path_16" data-name="Path 16" d="M38.376,23a.475.475,0,0,0-.476.475v2a.475.475,0,0,0,.951,0v-2A.476.476,0,0,0,38.376,23Z" transform="translate(-37.9 -23)" fill="#575b6d"/>
          <path id="Path_17" data-name="Path 17" d="M85.62,23a.475.475,0,0,0-.475.475v2a.475.475,0,0,0,.951,0v-2A.475.475,0,0,0,85.62,23Z" transform="translate(-76.073 -23)" fill="#575b6d"/>
          <path id="Path_18" data-name="Path 18" d="M47.312,66.776a.574.574,0,0,1-.407-.169L45.179,64.88a.576.576,0,1,1,.815-.815l1.319,1.319,4.007-4.007a.576.576,0,0,1,.815.815L47.72,66.607A.574.574,0,0,1,47.312,66.776Z" transform="translate(-43.645 -53.872)" fill="#575b6d"/>
        </g>
      </g>
    </g>
    <text id="siri_we_help_to_productive" data-name="siri we help to productive" transform="translate(54.979 22.539)" font-size="11" font-family="Helvetica"><tspan x="0" y="0">siri we help to productive</tspan></text>
  </g>
</svg>
