<svg xmlns="http://www.w3.org/2000/svg" xmlns:xlink="http://www.w3.org/1999/xlink" width="51.287" height="56.884" viewBox="0 0 51.287 56.884">
  <defs>
    <linearGradient id="linear-gradient" x1="0.25" y1="0.225" x2="0.828" y2="0.747" gradientUnits="objectBoundingBox">
      <stop offset="0" stop-color="#d23e51"/>
      <stop offset="1" stop-color="#ff6377"/>
    </linearGradient>
  </defs>
  <g id="Group_3437" data-name="Group 3437" transform="translate(-1282 -3354)">
    <g id="Group_2743" data-name="Group 2743" transform="translate(1282 3354)">
      <path id="Path_511" data-name="Path 511" d="M76.377,25.643A25.643,25.643,0,1,0,50,51.277a.757.757,0,0,1,.737.756V55.52a1.361,1.361,0,0,0,2.324.962l5.068-5.068a13.732,13.732,0,0,1,3.738-2.664A25.643,25.643,0,0,0,76.377,25.643Z" transform="translate(-25.09)" fill="url(#linear-gradient)"/>
    </g>
    <g id="Group_540" data-name="Group 540" transform="translate(1292.509 3364.771)">
      <path id="Path_239" data-name="Path 239" d="M780.192,265.168h-7.018a1.152,1.152,0,0,0,0,2.3h4.165l-10.632,12.052c3.763-2.9,7.96-6.593,12.283-10.517v4.03a1.113,1.113,0,1,0,2.226,0v-6.845a1.024,1.024,0,0,0-1.024-1.024" transform="translate(-754.001 -261.939)" fill="#fff"/>
      <path id="Path_240" data-name="Path 240" d="M702.178,309.406a8.2,8.2,0,0,1-10.064,1.361,7.562,7.562,0,0,1,3.736-14.135c.155,0,.308.006.46.015a7.573,7.573,0,0,1,1.249.18c.2.047.393.1.586.127a1.545,1.545,0,0,0,.578-.013,2.013,2.013,0,0,0,.968-.534c.046-.046.09-.094.131-.144a1.775,1.775,0,0,0-.222-2.514,2.734,2.734,0,0,0-1.4-.691q-.274-.051-.552-.089a10.386,10.386,0,0,0-11.77,10.3,10.393,10.393,0,0,0,5.944,9.394,11.182,11.182,0,0,0,3.518.562c5.534,0,10.02-3.961,10.02-8.847a8.15,8.15,0,0,0-1.972-5.27,8.184,8.184,0,0,1-1.21,10.3" transform="translate(-682.824 -286.339)" fill="#fff"/>
    </g>
  </g>
</svg>
