<svg xmlns="http://www.w3.org/2000/svg" width="682.64" height="432.389" viewBox="0 0 682.64 432.389">
  <g id="Group_2801" data-name="Group 2801" transform="translate(-37.981 -28.278)">
    <g id="BACKGROUND">
      <path id="Path_1362" data-name="Path 1362" d="M720.621,284.243a179.2,179.2,0,0,0-179.2-179.2c-3.655,0-7.281.123-10.882.339a214.147,214.147,0,0,0-164.762-77.1c-101.1,0-185.863,69.918-208.6,164.036a141.892,141.892,0,0,0-62.435,236.6H647.167A178.941,178.941,0,0,0,720.621,284.243Z" fill="#cfdcff"/>
    </g>
    <g id="OBJECT">
      <g id="Group_2741" data-name="Group 2741">
        <g id="Group_2599" data-name="Group 2599">
          <path id="Path_1363" data-name="Path 1363" d="M712.019,444.833h0a3.166,3.166,0,0,0-3.167-3.166H686.833a3.166,3.166,0,0,1-3.166-3.167h0a3.167,3.167,0,0,0-3.167-3.167h-5.872a3.167,3.167,0,0,1-3.167-3.166h0A3.167,3.167,0,0,0,668.294,429H81.706a3.167,3.167,0,0,0-3.167,3.167h0a3.167,3.167,0,0,1-3.167,3.166H69.5a3.167,3.167,0,0,0-3.167,3.167h0a3.166,3.166,0,0,1-3.166,3.167H41.148a3.166,3.166,0,0,0-3.167,3.166h0A3.167,3.167,0,0,0,41.148,448H241.177a3.167,3.167,0,0,1,3.167,3.167h0a3.166,3.166,0,0,1-3.167,3.166H129.65a3.167,3.167,0,0,0-3.167,3.167h0a3.167,3.167,0,0,0,3.167,3.167H675.2a3.167,3.167,0,0,0,3.166-3.167h0a3.167,3.167,0,0,0-3.166-3.167H567.7a3.166,3.166,0,0,1-3.167-3.166h0A3.167,3.167,0,0,1,567.7,448H708.852A3.167,3.167,0,0,0,712.019,444.833Z" fill="#b8caff"/>
          <path id="Path_1364" data-name="Path 1364" d="M108.732,460.667H83.066A3.167,3.167,0,0,1,79.9,457.5h0a3.167,3.167,0,0,1,3.167-3.167h25.666A3.167,3.167,0,0,1,111.9,457.5h0A3.167,3.167,0,0,1,108.732,460.667Z" fill="#b8caff"/>
        </g>
        <g id="Group_2634" data-name="Group 2634">
          <g id="Group_2606" data-name="Group 2606">
            <g id="Group_2604" data-name="Group 2604">
              <g id="Group_2600" data-name="Group 2600">
                <path id="Path_1365" data-name="Path 1365" d="M442.911,340.774h-4.917l-1.315,11.788,5.232-2.827Z" fill="#422c4f"/>
                <path id="Path_1366" data-name="Path 1366" d="M436.679,352.562l-8.352,74.879h4.917l8.667-77.705Z" fill="#99a3b0"/>
              </g>
              <g id="Group_2601" data-name="Group 2601">
                <path id="Path_1367" data-name="Path 1367" d="M479.577,351.253l-8.5,76.188H476l8.813-79.015Z" fill="#99a3b0"/>
                <path id="Path_1368" data-name="Path 1368" d="M485.663,340.774h-4.917l-1.169,10.479,5.232-2.827Z" fill="#422c4f"/>
              </g>
              <g id="Group_2602" data-name="Group 2602">
                <path id="Path_1369" data-name="Path 1369" d="M504.164,340.774h-4.917l1.2,10.754,4.638-2.505Z" fill="#422c4f"/>
                <path id="Path_1370" data-name="Path 1370" d="M513.831,427.441l-8.747-78.418-4.638,2.505,8.467,75.913Z" fill="#99a3b0"/>
              </g>
              <g id="Group_2603" data-name="Group 2603">
                <path id="Path_1371" data-name="Path 1371" d="M546.916,340.774H542l1.119,10.031,4.638-2.505Z" fill="#422c4f"/>
                <path id="Path_1372" data-name="Path 1372" d="M556.582,427.441,547.755,348.3l-4.638,2.505,8.548,76.635Z" fill="#99a3b0"/>
              </g>
            </g>
            <g id="Group_2605" data-name="Group 2605">
              <path id="Path_1373" data-name="Path 1373" d="M434.454,340.774v0a27.311,27.311,0,0,1,24.792-15.855h32.541l17.594-114.523L534.1,190.4h15.656a32,32,0,0,1,31.629,36.859l-14.834,96.553a20,20,0,0,1-19.768,16.963Z" fill="#797c99"/>
              <path id="Path_1374" data-name="Path 1374" d="M418.8,340.774v0a27.31,27.31,0,0,1,24.792-15.855h32.541l15-97.644A43.476,43.476,0,0,1,534.1,190.4h0a32,32,0,0,1,31.629,36.859l-13.18,85.785a14,14,0,0,1-13.838,11.874H518.189A27.311,27.311,0,0,0,493.4,340.772v0Z" fill="#495375"/>
            </g>
          </g>
          <g id="Group_2633" data-name="Group 2633">
            <g id="Group_2613" data-name="Group 2613">
              <g id="Group_2607" data-name="Group 2607">
                <path id="Path_1375" data-name="Path 1375" d="M465.528,190.483a17.095,17.095,0,0,0,23.507-9.15h-3.868a4,4,0,0,1-4-4V164l-17.25,4.5v9.667a4,4,0,0,1-4,4h-2.41A17.43,17.43,0,0,0,465.528,190.483Z" fill="#eba58e"/>
                <path id="Path_1376" data-name="Path 1376" d="M481.167,164c-2.917,10.417-8.917,14.75-17.25,11.833V168.5Z" fill="#422c4f"/>
              </g>
              <g id="Group_2612" data-name="Group 2612">
                <path id="Path_1377" data-name="Path 1377" d="M447.917,149c-6.75-5.083-4.5-15.5-3.5-17a17.662,17.662,0,0,1-6.226-5.886,9.883,9.883,0,0,1-1.02-8.17,7.018,7.018,0,0,1,6.4-4.734c3.306.058,5.922,2.759,9.046,3.844,3.156,1.1,6.633.478,9.866-.363s6.5-1.9,9.835-1.654a12.751,12.751,0,0,1,11.642,10.643,6.753,6.753,0,0,1,8.118,2.224c1.593,2.4,1.357,5.534.976,8.389-.689,5.167-3.489,17.643-4.724,22.707L479,161.333Z" fill="#422c4f"/>
                <g id="Group_2608" data-name="Group 2608">
                  <path id="Path_1378" data-name="Path 1378" d="M485.526,151.67a6.921,6.921,0,0,1,3.82-3.088,4.493,4.493,0,0,1,4.6,1.217,4.822,4.822,0,0,1,.889,3.968,10.684,10.684,0,0,1-1.7,3.814,12.463,12.463,0,0,1-2.445,2.906,5.926,5.926,0,0,1-3.459,1.437,3.919,3.919,0,0,1-3.332-1.511c-.837-1.171-.6-2.823-.223-4.129A18.312,18.312,0,0,1,485.526,151.67Z" fill="#eba58e"/>
                  <path id="Path_1379" data-name="Path 1379" d="M487.059,159.928a1.909,1.909,0,0,1-1.535-.678c-.134-.189-.4-.8.071-2.406a16.761,16.761,0,0,1,1.627-4.114,4.979,4.979,0,0,1,2.673-2.226,2.88,2.88,0,0,1,.78-.106,2.288,2.288,0,0,1,1.743.7,2.873,2.873,0,0,1,.445,2.313,9.025,9.025,0,0,1-1.408,3.087,10.376,10.376,0,0,1-2.038,2.45,3.958,3.958,0,0,1-2.269.982Z" fill="#de7274"/>
                </g>
                <path id="Path_1380" data-name="Path 1380" d="M482.417,147.833a12.211,12.211,0,0,1-6.94-12.738,40.344,40.344,0,0,1-25.89-.55,19.3,19.3,0,0,0-2.92,10.205v9.333A19.416,19.416,0,0,0,466.083,173.5h0a19.413,19.413,0,0,0,18.655-14.073,11.5,11.5,0,0,1-1.4-1.8A11.37,11.37,0,0,1,482.417,147.833Z" fill="#eba58e"/>
                <g id="Group_2609" data-name="Group 2609">
                  <path id="Path_1381" data-name="Path 1381" d="M451.247,143.257a5.874,5.874,0,0,0-3.83,3.832l8.458-2.115A4.558,4.558,0,0,0,451.247,143.257Z" fill="#422c4f"/>
                </g>
                <ellipse id="Ellipse_82" data-name="Ellipse 82" cx="1.293" cy="1.706" rx="1.293" ry="1.706" transform="translate(450.767 148.382)" fill="#422c4f"/>
                <g id="Group_2610" data-name="Group 2610">
                  <path id="Path_1382" data-name="Path 1382" d="M469.648,144.176a7.123,7.123,0,0,1,5.055,3.832l-11.161-2.115A7.124,7.124,0,0,1,469.648,144.176Z" fill="#422c4f"/>
                </g>
                <path id="Path_1383" data-name="Path 1383" d="M466.87,151.007a1.706,1.706,0,1,0,1.706-1.706A1.706,1.706,0,0,0,466.87,151.007Z" fill="#422c4f"/>
                <g id="Group_2611" data-name="Group 2611">
                  <path id="Path_1384" data-name="Path 1384" d="M460.818,160.689H460.8c-.882-.078-1.772-.191-2.682-.311a3.286,3.286,0,0,1-2.285-1.4,3.19,3.19,0,0,1-.469-2.559,55.209,55.209,0,0,1,2.824-8.459.25.25,0,1,1,.459.2,54.772,54.772,0,0,0-2.8,8.382,2.653,2.653,0,0,0,.4,2.158,2.783,2.783,0,0,0,1.937,1.19c.9.119,1.789.232,2.66.309a.25.25,0,0,1-.022.5Z" fill="#422c4f"/>
                </g>
                <path id="Path_1385" data-name="Path 1385" d="M468.612,161.7l-12.435,1.454a7.63,7.63,0,0,0,6.53,3.064C465.213,166,467.445,163.933,468.612,161.7Z" fill="#fff"/>
              </g>
            </g>
            <g id="Group_2623" data-name="Group 2623">
              <g id="Group_2615" data-name="Group 2615">
                <path id="Path_1386" data-name="Path 1386" d="M483.329,281.833h-36.5l-56.412,15.406a23,23,0,0,0-15.334,30.631L400,391l24.5-9.616L415,328.965h21.833l46.5-30.3Z" fill="#5088ba"/>
                <path id="Path_1387" data-name="Path 1387" d="M427.145,380.345l-29.792,11.694,3.23,10.655L430.375,391Z" fill="#6ca7d3"/>
                <g id="Group_2614" data-name="Group 2614">
                  <path id="Path_1388" data-name="Path 1388" d="M398.517,428.917a13.225,13.225,0,0,0-.707,4.25h40.357l-1.3-4.25Z" fill="#bd6c67"/>
                  <path id="Path_1389" data-name="Path 1389" d="M425.816,392.79,406.168,400.5l4.877,12.881a5,5,0,0,1-2.5,6.274l-3.225,1.556a13.263,13.263,0,0,0-6.8,7.7h38.35Z" fill="#8c404c"/>
                </g>
                <path id="Path_1390" data-name="Path 1390" d="M423.4,319.456l1.851,9.509h11.583l46.5-30.3v-9.792l-45.915,9.516A18,18,0,0,0,423.4,319.456Z" fill="#457ba3"/>
              </g>
              <g id="Group_2617" data-name="Group 2617">
                <path id="Path_1391" data-name="Path 1391" d="M500.75,281.833l-47.6,12.765a28,28,0,0,0-20.558,30.3L439.5,384H468l2.25-58.75H491a37,37,0,0,0,37-37V272.278Z" fill="#5088ba"/>
                <rect id="Rectangle_778" data-name="Rectangle 778" width="33.5" height="10.167" transform="translate(436.833 384)" fill="#6ca7d3"/>
                <g id="Group_2616" data-name="Group 2616">
                  <path id="Path_1392" data-name="Path 1392" d="M465.833,394.167H441.667v17.014A14.628,14.628,0,0,1,434.083,424a14.621,14.621,0,0,0-6.871,8.333h38.621Z" fill="#a64f5a"/>
                  <path id="Path_1393" data-name="Path 1393" d="M427.212,432.333a14.608,14.608,0,0,0-.712,4.486v.348h39.333v-4.834Z" fill="#df8d6d"/>
                </g>
                <path id="Path_1394" data-name="Path 1394" d="M470.25,325.25l.609-15.916h0a13.392,13.392,0,0,1,2.1,15.514l-.214.4Z" fill="#457ba3"/>
              </g>
              <g id="Group_2618" data-name="Group 2618">
                <path id="Path_1395" data-name="Path 1395" d="M465.833,384.25a.25.25,0,0,1-.25-.25V322.75a.25.25,0,0,1,.5,0V384A.25.25,0,0,1,465.833,384.25Z" fill="#422c4f"/>
              </g>
              <g id="Group_2619" data-name="Group 2619">
                <path id="Path_1396" data-name="Path 1396" d="M422.076,368.267a.25.25,0,0,1-.246-.206l-10.823-59.729a.249.249,0,0,1,.2-.291.247.247,0,0,1,.291.2l10.823,59.73a.25.25,0,0,1-.2.291A.236.236,0,0,1,422.076,368.267Z" fill="#422c4f"/>
              </g>
              <g id="Group_2620" data-name="Group 2620">
                <path id="Path_1397" data-name="Path 1397" d="M416.665,380.6a.25.25,0,0,1-.243-.192l-15.5-63.844a.25.25,0,1,1,.486-.118l15.5,63.845a.251.251,0,0,1-.184.3A.239.239,0,0,1,416.665,380.6Z" fill="#422c4f"/>
              </g>
              <g id="Group_2621" data-name="Group 2621">
                <path id="Path_1398" data-name="Path 1398" d="M399.241,295.081a.25.25,0,0,1-.065-.491l47.592-13a.25.25,0,0,1,.13.482l-47.591,13A.249.249,0,0,1,399.241,295.081Z" fill="#422c4f"/>
              </g>
              <g id="Group_2622" data-name="Group 2622">
                <path id="Path_1399" data-name="Path 1399" d="M436.519,358.75a.251.251,0,0,1-.249-.221l-3.928-33.606a28.409,28.409,0,0,1,20.742-30.567l39.562-10.608a.249.249,0,1,1,.129.482l-39.562,10.609a27.906,27.906,0,0,0-20.375,30.025l3.929,33.607a.25.25,0,0,1-.219.277Z" fill="#422c4f"/>
              </g>
            </g>
            <g id="Group_2632" data-name="Group 2632">
              <path id="Path_1400" data-name="Path 1400" d="M494.926,181.333h-5.891a17.093,17.093,0,0,1-31.528.834H445.166a28,28,0,0,0-26.336,18.49l-11.746,32.531L436.5,241l3.833-13.679,6.5,54.512h36.5L520,253.5Z" fill="#fbeed1"/>
              <path id="Path_1401" data-name="Path 1401" d="M494.926,181.333h10.013a28,28,0,0,1,25.879,17.309l11.849,28.679L514.618,238.01Z" fill="#fbeed1"/>
              <g id="Group_2624" data-name="Group 2624">
                <path id="Path_1402" data-name="Path 1402" d="M483.329,281.833,520,253.5l-5.382-15.49,23.717-9.038,7.323,21.32a15,15,0,0,1-9.223,19.028L500.75,281.833l-29.25,7.844Z" fill="#eba58e"/>
                <path id="Path_1403" data-name="Path 1403" d="M538.335,228.972l-23.717,9.038,2.5,7.2,21.755-14.665Z" fill="#422c4f"/>
              </g>
              <g id="Group_2625" data-name="Group 2625">
                <path id="Path_1404" data-name="Path 1404" d="M433,285.612l-3.5-33.841,4.891-11.331L409.776,233.9l-2.722,9.441a27,27,0,0,0,.558,16.674l10.721,29.6Z" fill="#eba58e"/>
                <path id="Path_1405" data-name="Path 1405" d="M409.776,233.9l24.615,6.537-2.46,5.7L409.312,235.51Z" fill="#422c4f"/>
              </g>
              <path id="Path_1406" data-name="Path 1406" d="M504.472,208.809l3.977,37.837a12,12,0,0,1-2.807,9.045l-22.313,26.142L520,253.5Z" fill="#f7dd8c"/>
              <path id="Path_1407" data-name="Path 1407" d="M440.333,227.321l-2.742-23-2.273,11.629a23.272,23.272,0,0,0,3.375,17.222h0Z" fill="#f7dd8c"/>
              <g id="Group_2626" data-name="Group 2626">
                <path id="Path_1408" data-name="Path 1408" d="M514.618,238.26a.251.251,0,0,1-.236-.168L502.677,204.4a.25.25,0,1,1,.472-.164l11.705,33.688a.25.25,0,0,1-.154.318A.262.262,0,0,1,514.618,238.26Z" fill="#422c4f"/>
              </g>
              <g id="Group_2627" data-name="Group 2627">
                <path id="Path_1409" data-name="Path 1409" d="M511.9,230.626a.25.25,0,0,1-.088-.484l23.914-9.019a.25.25,0,1,1,.176.468L511.99,230.61A.24.24,0,0,1,511.9,230.626Z" fill="#422c4f"/>
              </g>
              <g id="Group_2628" data-name="Group 2628">
                <path id="Path_1410" data-name="Path 1410" d="M499.34,269.713a.25.25,0,0,1-.154-.448l27.407-21.175a.25.25,0,1,1,.306.4l-27.406,21.176A.25.25,0,0,1,499.34,269.713Z" fill="#422c4f"/>
              </g>
              <g id="Group_2629" data-name="Group 2629">
                <path id="Path_1411" data-name="Path 1411" d="M444.753,264.638a.25.25,0,0,1-.248-.221l-7.162-60.065a.25.25,0,0,1,.5-.06L445,264.358a.25.25,0,0,1-.219.278Z" fill="#422c4f"/>
              </g>
              <g id="Group_2630" data-name="Group 2630">
                <path id="Path_1412" data-name="Path 1412" d="M437.609,237.292a.222.222,0,0,1-.067-.01.25.25,0,0,1-.174-.308l2.724-9.72a.25.25,0,0,1,.482.135l-2.723,9.72A.253.253,0,0,1,437.609,237.292Z" fill="#422c4f"/>
              </g>
              <g id="Group_2631" data-name="Group 2631">
                <path id="Path_1413" data-name="Path 1413" d="M438.362,234.6a.255.255,0,0,1-.061-.007l-24.988-6.346a.25.25,0,0,1,.123-.484l24.988,6.345a.25.25,0,0,1-.062.492Z" fill="#422c4f"/>
              </g>
            </g>
          </g>
        </g>
        <g id="Group_2671" data-name="Group 2671">
          <g id="Group_2641" data-name="Group 2641">
            <g id="Group_2639" data-name="Group 2639">
              <g id="Group_2635" data-name="Group 2635">
                <path id="Path_1414" data-name="Path 1414" d="M182.819,355h4.917l1.315,11.788-5.232-2.827Z" fill="#422c4f"/>
                <path id="Path_1415" data-name="Path 1415" d="M189.051,366.788l8.352,74.879h-4.917l-8.667-77.705Z" fill="#99a3b0"/>
              </g>
              <g id="Group_2636" data-name="Group 2636">
                <path id="Path_1416" data-name="Path 1416" d="M146.153,365.479l8.5,76.188h-4.917l-8.813-79.015Z" fill="#99a3b0"/>
                <path id="Path_1417" data-name="Path 1417" d="M140.067,355h4.917l1.169,10.479-5.232-2.827Z" fill="#422c4f"/>
              </g>
              <g id="Group_2637" data-name="Group 2637">
                <path id="Path_1418" data-name="Path 1418" d="M121.566,355h4.917l-1.2,10.754-4.638-2.505Z" fill="#422c4f"/>
                <path id="Path_1419" data-name="Path 1419" d="M111.9,441.667l8.747-78.418,4.638,2.505-8.467,75.913Z" fill="#99a3b0"/>
              </g>
              <g id="Group_2638" data-name="Group 2638">
                <path id="Path_1420" data-name="Path 1420" d="M78.814,355h4.917l-1.119,10.031-4.638-2.505Z" fill="#422c4f"/>
                <path id="Path_1421" data-name="Path 1421" d="M69.147,441.667l8.827-79.141,4.638,2.505-8.548,76.635Z" fill="#99a3b0"/>
              </g>
            </g>
            <g id="Group_2640" data-name="Group 2640">
              <path id="Path_1422" data-name="Path 1422" d="M191.275,355v0a27.312,27.312,0,0,0-24.792-15.855H133.942l-17.6-114.523L91.625,204.625H75.969A32,32,0,0,0,44.34,241.484l14.834,96.553A20,20,0,0,0,78.942,355Z" fill="#797c99"/>
              <path id="Path_1423" data-name="Path 1423" d="M206.932,355v0a27.311,27.311,0,0,0-24.792-15.855H149.6l-15-97.644a43.476,43.476,0,0,0-42.972-36.874h0A32,32,0,0,0,60,241.484l13.18,85.785a14,14,0,0,0,13.837,11.874h20.528A27.312,27.312,0,0,1,132.333,355v0Z" fill="#495375"/>
            </g>
          </g>
          <g id="Group_2670" data-name="Group 2670">
            <g id="Group_2652" data-name="Group 2652">
              <g id="Group_2644" data-name="Group 2644">
                <g id="Group_2642" data-name="Group 2642">
                  <path id="Path_1424" data-name="Path 1424" d="M155.751,296.333l-16.527,42.81H222l-14.75,63.671h40l11.333-68.042a28,28,0,0,0-24.867-32.464l-60.473-5.975Z" fill="#537496"/>
                  <path id="Path_1425" data-name="Path 1425" d="M222,339.143l4.716-20.356-5.988,5.366a6.193,6.193,0,0,0-2.062,4.615h0a6.2,6.2,0,0,1-5.441,6.152l-2.468.3-.653,3.919Z" fill="#495375"/>
                </g>
                <g id="Group_2643" data-name="Group 2643">
                  <path id="Path_1426" data-name="Path 1426" d="M242.76,427.361c-.066-.071-.138-.136-.2-.208l-.9-1.005a10.724,10.724,0,0,1-2.588-8.865l2.429-14.469H223.058L220.73,416.88a22.355,22.355,0,0,1-2.765,7.871,29.492,29.492,0,0,0-3.021,7.416h22.692A11.793,11.793,0,0,1,242.76,427.361Z" fill="#a64f5a"/>
                  <path id="Path_1427" data-name="Path 1427" d="M252.316,431.022l-3.053-.369a10.72,10.72,0,0,1-6.5-3.292,11.793,11.793,0,0,0-5.124,4.806H214.944A35.044,35.044,0,0,0,214,437.2a4.013,4.013,0,0,0,3.977,4.472H261.75A10.723,10.723,0,0,0,252.316,431.022Z" fill="#eca85e"/>
                  <path id="Path_1428" data-name="Path 1428" d="M223.058,402.814H241.5l-.369,2.268L222.1,408.84Z" fill="#422c4f"/>
                </g>
              </g>
              <g id="Group_2651" data-name="Group 2651">
                <g id="Group_2645" data-name="Group 2645">
                  <path id="Path_1429" data-name="Path 1429" d="M192.432,427.361c-.066-.071-.138-.136-.2-.208l-.9-1.005a10.724,10.724,0,0,1-2.588-8.865l2.34-14.469H172.641L170.4,416.88a22.354,22.354,0,0,1-2.765,7.871,29.493,29.493,0,0,0-3.021,7.416h22.692A11.793,11.793,0,0,1,192.432,427.361Z" fill="#bd6c67"/>
                  <path id="Path_1430" data-name="Path 1430" d="M201.988,431.022l-3.053-.369a10.723,10.723,0,0,1-6.5-3.292,11.793,11.793,0,0,0-5.124,4.806H164.616a35.042,35.042,0,0,0-.947,5.028,4.013,4.013,0,0,0,3.977,4.472h43.776A10.722,10.722,0,0,0,201.988,431.022Z" fill="#f4d071"/>
                  <path id="Path_1431" data-name="Path 1431" d="M172.641,402.814h18.442l-.369,2.268-19.031,3.758Z" fill="#422c4f"/>
                </g>
                <g id="Group_2646" data-name="Group 2646">
                  <path id="Path_1432" data-name="Path 1432" d="M108,296.333l-4.45,11.527a23,23,0,0,0,21.457,31.283H174.25L159.5,402.814h40l11.537-69.266a28,28,0,0,0-23.691-32.323l-34.513-4.892Z" fill="#6081a8"/>
                  <path id="Path_1433" data-name="Path 1433" d="M174.25,339.143l4.716-20.356-5.757,5.716a15.29,15.29,0,0,0-4.042,14.64h5.083Z" fill="#495375"/>
                </g>
                <g id="Group_2647" data-name="Group 2647">
                  <path id="Path_1434" data-name="Path 1434" d="M174.25,339.393H139.224a.25.25,0,0,1,0-.5H174.25a.25.25,0,0,1,0,.5Z" fill="#422c4f"/>
                </g>
                <g id="Group_2648" data-name="Group 2648">
                  <path id="Path_1435" data-name="Path 1435" d="M161.622,393.906a.222.222,0,0,1-.057-.007.25.25,0,0,1-.187-.3l17.344-74.87a.25.25,0,0,1,.487.114l-17.344,74.869A.251.251,0,0,1,161.622,393.906Z" fill="#422c4f"/>
                </g>
                <g id="Group_2649" data-name="Group 2649">
                  <path id="Path_1436" data-name="Path 1436" d="M187.347,301.475a.217.217,0,0,1-.036,0l-21.505-3.048a.25.25,0,1,1,.071-.494l21.5,3.048a.25.25,0,0,1-.034.5Z" fill="#422c4f"/>
                </g>
                <g id="Group_2650" data-name="Group 2650">
                  <path id="Path_1437" data-name="Path 1437" d="M200.821,395.137l-.042,0a.251.251,0,0,1-.205-.288l7.64-45.872a.25.25,0,1,1,.494.082l-7.641,45.872A.251.251,0,0,1,200.821,395.137Z" fill="#422c4f"/>
                </g>
              </g>
            </g>
            <g id="Group_2655" data-name="Group 2655">
              <g id="Group_2653" data-name="Group 2653">
                <path id="Path_1438" data-name="Path 1438" d="M188.333,228.5l7,23.271,34.334,40.9L220.481,301,187.4,271.784a32.006,32.006,0,0,1-9.754-15.8L171.833,234Z" fill="#a64f5a"/>
                <path id="Path_1439" data-name="Path 1439" d="M188.333,228.5l-16.5,5.5,5.813,21.98c.032.119.075.234.107.352l14.429-15.039Z" fill="#422c4f"/>
              </g>
              <g id="Group_2654" data-name="Group 2654">
                <path id="Path_1440" data-name="Path 1440" d="M168.88,192.592h0a12.515,12.515,0,0,1,12.573,8.8l9.922,32.047L181.25,235.75l-6-17.25Z" fill="#f4d071"/>
                <path id="Path_1441" data-name="Path 1441" d="M175.25,218.5l6,17.25,8.76-2L172.8,208.535Z" fill="#eca85e"/>
              </g>
            </g>
            <path id="Path_1442" data-name="Path 1442" d="M175.307,164.078c3.892-5.547,7.406-11.531,8.837-18.154s.528-14.019-3.7-19.316-12.144-7.8-18.169-4.7c-7.42-4.863-16.319-7.975-24.589-4.762a28.476,28.476,0,0,0-16.99,19.181c-4.418,17.33,8.1,36.042,2.413,53-2.343,6.981-7.483,12.589-11.9,18.479s-8.369,12.837-7.665,20.168c.9,9.408,9.771,16.743,19.141,17.979a27.141,27.141,0,0,0,20.829-6.129c6.635-5.63,10.152-14.191,11.7-22.753s1.366-17.329,1.923-26.012c.349-5.432,1.018-10.952,3.286-15.9S170.045,165.47,175.307,164.078Z" fill="#422c4f"/>
            <g id="Group_2658" data-name="Group 2658">
              <path id="Path_1443" data-name="Path 1443" d="M184.387,232,178,217.5l-9.12-24.908-23.9,1.181a25,25,0,0,0-23.742,26.052l.463,10.677h0l-1.326,27.026a47.99,47.99,0,0,1-3.164,14.935L108,296.333h65.244l4.548-30.256.8-8.843a14.618,14.618,0,0,1,3.357-8.082h0A16.408,16.408,0,0,0,184.387,232Z" fill="#f4d071"/>
              <g id="Group_2656" data-name="Group 2656">
                <path id="Path_1444" data-name="Path 1444" d="M184.387,232.247a.251.251,0,0,1-.229-.149l-6.387-14.5-5.022-13.713a.25.25,0,0,1,.47-.172l5.016,13.7,6.381,14.482a.25.25,0,0,1-.229.351Z" fill="#422c4f"/>
              </g>
              <g id="Group_2657" data-name="Group 2657">
                <path id="Path_1445" data-name="Path 1445" d="M158.494,249.338a.25.25,0,0,1-.018-.5,17.939,17.939,0,0,0,12.687-6.822.25.25,0,1,1,.4.306,18.454,18.454,0,0,1-13.046,7.015Z" fill="#422c4f"/>
              </g>
            </g>
            <g id="Group_2664" data-name="Group 2664">
              <g id="Group_2659" data-name="Group 2659">
                <path id="Path_1446" data-name="Path 1446" d="M144.625,174.75,144,194.375l3.106,3.19A9.949,9.949,0,0,0,163.5,194.25h0l-1.75-14.75Z" fill="#bd6c67"/>
                <path id="Path_1447" data-name="Path 1447" d="M156.779,189.707a10.375,10.375,0,0,0,6.068-.956l-1.1-9.251-17.125-4.75-.083,2.593a31.787,31.787,0,0,0,3.586,6.615C150.244,186.811,153.268,189.167,156.779,189.707Z" fill="#422c4f"/>
              </g>
              <path id="Path_1448" data-name="Path 1448" d="M177.125,148v10.819a42.345,42.345,0,0,1-2.368,13.96h0A17.115,17.115,0,0,1,158.6,184.25h0a17.113,17.113,0,0,1-11.491-4.431l-6-5.44a16.748,16.748,0,0,1-4.98-8.254h0c18.375-8,24.875-21.625,25.125-32.5C173.75,138.75,177.125,148,177.125,148Z" fill="#bd6c67"/>
              <g id="Group_2663" data-name="Group 2663">
                <g id="Group_2660" data-name="Group 2660">
                  <path id="Path_1449" data-name="Path 1449" d="M158.37,148.6a8.049,8.049,0,0,0-5.711,4.329l12.609-2.39A8.048,8.048,0,0,0,158.37,148.6Z" fill="#422c4f"/>
                </g>
                <path id="Path_1450" data-name="Path 1450" d="M161.508,156.316a1.927,1.927,0,1,1-1.927-1.927A1.927,1.927,0,0,1,161.508,156.316Z" fill="#422c4f"/>
                <g id="Group_2661" data-name="Group 2661">
                  <path id="Path_1451" data-name="Path 1451" d="M174.192,148.6c1.554.488,2.791,2.153,3.448,4.329l-7.614-2.39C171.118,148.912,172.637,148.112,174.192,148.6Z" fill="#422c4f"/>
                </g>
                <path id="Path_1452" data-name="Path 1452" d="M172.3,156.316c0,1.064.521,1.927,1.164,1.927s1.164-.863,1.164-1.927-.521-1.927-1.164-1.927S172.3,155.252,172.3,156.316Z" fill="#422c4f"/>
                <g id="Group_2662" data-name="Group 2662">
                  <path id="Path_1453" data-name="Path 1453" d="M167.911,167.373a15.176,15.176,0,0,1-1.529-.1.25.25,0,1,1,.05-.5,7.494,7.494,0,0,0,2.846-.074,2.41,2.41,0,0,0,1.789-1.788,3.815,3.815,0,0,0-.547-2.053l-.084-.178a18.14,18.14,0,0,1-1.659-8.695.25.25,0,1,1,.5.029,17.633,17.633,0,0,0,1.614,8.455l.082.176a4.174,4.174,0,0,1,.591,2.335,2.915,2.915,0,0,1-2.146,2.2A5.357,5.357,0,0,1,167.911,167.373Z" fill="#422c4f"/>
                </g>
                <path id="Path_1454" data-name="Path 1454" d="M170.394,170.453l-12.813,1.686a6.845,6.845,0,0,0,6.687,3.667A7.708,7.708,0,0,0,170.394,170.453Z" fill="#fff"/>
              </g>
            </g>
            <g id="Group_2669" data-name="Group 2669">
              <g id="Group_2665" data-name="Group 2665">
                <path id="Path_1455" data-name="Path 1455" d="M124.75,251.771l22.5-3.521,3.083,26.25,54.334-16.667,3.166,14.334-53.064,24.189a20,20,0,0,1-28.255-16.925Z" fill="#bd6c67"/>
                <path id="Path_1456" data-name="Path 1456" d="M147.25,248.25l-22.5,3.521.589,9.239,22.2-10.328Z" fill="#422c4f"/>
              </g>
              <g id="Group_2667" data-name="Group 2667">
                <path id="Path_1457" data-name="Path 1457" d="M150.419,247.754l-27.374,4.284-.378-3.205,15.625-2.365a9,9,0,0,0,7.592-9.939L143.5,216.055a15.428,15.428,0,0,0-7.357-11.43h0l.333.125a15.433,15.433,0,0,1,9.869,12.409Z" fill="#eca85e"/>
                <g id="Group_2666" data-name="Group 2666">
                  <path id="Path_1458" data-name="Path 1458" d="M123.044,252.288a.25.25,0,0,1-.038-.5l27.132-4.246L146.1,217.192a15.159,15.159,0,0,0-9.709-12.208l-.333-.125a.25.25,0,1,1,.176-.468l.333.125a15.659,15.659,0,0,1,10.029,12.61l4.074,30.595a.252.252,0,0,1-.21.28l-27.374,4.284A.247.247,0,0,1,123.044,252.288Z" fill="#422c4f"/>
                </g>
              </g>
              <g id="Group_2668" data-name="Group 2668">
                <path id="Path_1459" data-name="Path 1459" d="M139.224,278.158a.25.25,0,0,1-.073-.489l57.415-17.612a.254.254,0,0,1,.312.166.251.251,0,0,1-.166.312L139.3,278.147A.264.264,0,0,1,139.224,278.158Z" fill="#422c4f"/>
              </g>
            </g>
          </g>
        </g>
        <g id="Group_2704" data-name="Group 2704">
          <g id="Group_2698" data-name="Group 2698">
            <g id="Group_2673" data-name="Group 2673">
              <path id="Path_1460" data-name="Path 1460" d="M359.692,159.833V183.5a13,13,0,0,1-13,13H344.5l-2,3.167H317l8.667-13.5Z" fill="#f2c9ad"/>
              <path id="Path_1461" data-name="Path 1461" d="M359.75,164.375l-5.875,8.125v8.75a9,9,0,0,1-9,9H329.206a9.018,9.018,0,0,1-7.629-4.216c-16.165-25.7-11.985-45.143,5.923-42.534C342.875,121.25,382.125,147.75,359.75,164.375Z" fill="#6a3649"/>
              <path id="Path_1462" data-name="Path 1462" d="M357.376,167.658l-3.5,4.842V181a2.428,2.428,0,0,0,2.806,1.749,5.134,5.134,0,0,0,2.548-2.465,13.436,13.436,0,0,0,1.8-5.13,10.327,10.327,0,0,0-.735-5.606A2.784,2.784,0,0,0,357.376,167.658Z" fill="#f2c9ad"/>
              <g id="Group_2672" data-name="Group 2672">
                <path id="Path_1463" data-name="Path 1463" d="M356.184,183.068a2.388,2.388,0,0,1-.861-.166.25.25,0,0,1,.181-.466,1.746,1.746,0,0,0,1.107.073,4.814,4.814,0,0,0,2.4-2.354,13.2,13.2,0,0,0,1.764-5.033,10.106,10.106,0,0,0-.712-5.465,2.806,2.806,0,0,0-1.449-1.568.25.25,0,1,1,.179-.466,3.259,3.259,0,0,1,1.721,1.817,10.49,10.49,0,0,1,.757,5.746,13.709,13.709,0,0,1-1.831,5.226,5.184,5.184,0,0,1-2.692,2.576A1.984,1.984,0,0,1,356.184,183.068Z" fill="#422c4f"/>
              </g>
            </g>
            <g id="Group_2686" data-name="Group 2686">
              <g id="Group_2678" data-name="Group 2678">
                <g id="Group_2675" data-name="Group 2675">
                  <g id="Group_2674" data-name="Group 2674">
                    <path id="Path_1464" data-name="Path 1464" d="M324.819,429.176A22.638,22.638,0,0,1,321,422.5l-.666-1.831H299.561l-1.615,16.5h31.118A22.609,22.609,0,0,0,324.819,429.176Z" fill="#454f6b"/>
                    <path id="Path_1465" data-name="Path 1465" d="M329.064,437.167H297.946l-.44,4.5H330l-.32-1.878A22.388,22.388,0,0,0,329.064,437.167Z" fill="#fff"/>
                  </g>
                  <path id="Path_1466" data-name="Path 1466" d="M320.333,420.667H299.561l-.622,6.363Z" fill="#422c4f"/>
                </g>
                <g id="Group_2677" data-name="Group 2677">
                  <g id="Group_2676" data-name="Group 2676">
                    <path id="Path_1467" data-name="Path 1467" d="M338.03,320l-8,100.667H293.367l7.841-81Z" fill="#984058"/>
                  </g>
                  <path id="Path_1468" data-name="Path 1468" d="M334.03,370.333l-34.812-10.094,1.992-20.573L338.03,320Z" fill="#472948"/>
                </g>
              </g>
              <g id="Group_2682" data-name="Group 2682">
                <g id="Group_2680" data-name="Group 2680">
                  <g id="Group_2679" data-name="Group 2679">
                    <path id="Path_1469" data-name="Path 1469" d="M390.056,430.29h0a19.419,19.419,0,0,1-8.363-7.828l-1.026-1.8H362l-3.536,16.5H397.81A19.4,19.4,0,0,0,390.056,430.29Z" fill="#454f6b"/>
                    <path id="Path_1470" data-name="Path 1470" d="M397.81,437.167H358.464l-.964,4.5H400l-.058-.171A19.345,19.345,0,0,0,397.81,437.167Z" fill="#fff"/>
                  </g>
                  <path id="Path_1471" data-name="Path 1471" d="M380.667,420.667H362l-1.363,6.363Z" fill="#422c4f"/>
                </g>
                <g id="Group_2681" data-name="Group 2681">
                  <path id="Path_1472" data-name="Path 1472" d="M340.177,296.333l39.873,17.642a21,21,0,0,1,12.437,20.868l-6.82,85.824H349l7.842-81-23.521-2.63H274.89v-40.7Z" fill="#984058"/>
                  <path id="Path_1473" data-name="Path 1473" d="M356.846,339.667H382.5l-1.6,1.184a27.581,27.581,0,0,1-24.575,4.181h0Z" fill="#472948"/>
                </g>
              </g>
              <g id="Group_2683" data-name="Group 2683">
                <path id="Path_1474" data-name="Path 1474" d="M382.5,410.917H353.333a.25.25,0,0,1,0-.5H382.5a.25.25,0,0,1,0,.5Z" fill="#422c4f"/>
              </g>
              <g id="Group_2684" data-name="Group 2684">
                <path id="Path_1475" data-name="Path 1475" d="M327.113,410.917H297.946a.25.25,0,0,1,0-.5h29.167a.25.25,0,0,1,0,.5Z" fill="#422c4f"/>
              </g>
              <g id="Group_2685" data-name="Group 2685">
                <path id="Path_1476" data-name="Path 1476" d="M380.667,416.75h-.022a.251.251,0,0,1-.227-.271l6.166-70.232a.244.244,0,0,1,.27-.227.249.249,0,0,1,.228.27l-6.166,70.233A.25.25,0,0,1,380.667,416.75Z" fill="#422c4f"/>
              </g>
            </g>
            <g id="Group_2697" data-name="Group 2697">
              <g id="Group_2687" data-name="Group 2687">
                <path id="Path_1477" data-name="Path 1477" d="M408.625,225.25l-8.958-15.917h0a4.775,4.775,0,0,1,5.6,1.2L408,213.667Z" fill="#eba58e"/>
                <path id="Path_1478" data-name="Path 1478" d="M404.625,230.625l4-5.375-2-11.75c-.186-9.306,3.854-14.178,5.931-16.06a1.872,1.872,0,0,1,2.318-.173l.023.015a1.881,1.881,0,0,1,.475,2.613A21.107,21.107,0,0,0,412,209.25a22.908,22.908,0,0,1,7.735-8.81,1.854,1.854,0,0,1,2.149.074l5.562,4.214a1.854,1.854,0,0,1,.3,2.677,27.211,27.211,0,0,0-4.372,8.1c2,7.875-1.75,13.125-3.375,14l-6.5,10.375Z" fill="#f2c9ad"/>
              </g>
              <g id="Group_2688" data-name="Group 2688">
                <path id="Path_1479" data-name="Path 1479" d="M272,223.5h0a34.61,34.61,0,0,1,33.763-27h33.759a34,34,0,0,1,31.548,21.322L384,250l18.667-21.667c13.333.667,15.666,14.334,15.666,14.334L392.7,275.426a16,16,0,0,1-27.205-3.327L354,246.417l-10.5,54.25c-15.833,9.333-62.169,7-71.5,2Z" fill="#6ca8bc"/>
                <path id="Path_1480" data-name="Path 1480" d="M354,246.417l4.709-24.328.983,37.049Z" fill="#468097"/>
                <path id="Path_1481" data-name="Path 1481" d="M384,250l5.782,14.388.552-7.628a12.327,12.327,0,0,0-3.744-9.766h0Z" fill="#468097"/>
              </g>
              <g id="Group_2689" data-name="Group 2689">
                <path id="Path_1482" data-name="Path 1482" d="M416.419,210.928a.245.245,0,0,1-.117-.03.25.25,0,0,1-.1-.338,25,25,0,0,1,6.512-7.83.25.25,0,1,1,.31.392,24.492,24.492,0,0,0-6.38,7.673A.251.251,0,0,1,416.419,210.928Z" fill="#422c4f"/>
              </g>
              <g id="Group_2690" data-name="Group 2690">
                <path id="Path_1483" data-name="Path 1483" d="M420.6,212.048a.249.249,0,0,1-.214-.379,27.353,27.353,0,0,1,4.95-6.034.25.25,0,0,1,.338.369,26.859,26.859,0,0,0-4.861,5.924A.25.25,0,0,1,420.6,212.048Z" fill="#422c4f"/>
              </g>
              <g id="Group_2691" data-name="Group 2691">
                <path id="Path_1484" data-name="Path 1484" d="M407.084,227.571a.249.249,0,0,1-.2-.4l1.476-1.986-1.522-8.95a.249.249,0,0,1,.2-.288.243.243,0,0,1,.288.2l1.541,9.056a.247.247,0,0,1-.046.191l-1.541,2.072A.248.248,0,0,1,407.084,227.571Z" fill="#422c4f"/>
              </g>
              <g id="Group_2692" data-name="Group 2692">
                <path id="Path_1485" data-name="Path 1485" d="M345.867,288.691a.2.2,0,0,1-.048-.005.249.249,0,0,1-.2-.292l12.842-66.352a.25.25,0,1,1,.491.094l-12.842,66.353A.251.251,0,0,1,345.867,288.691Z" fill="#422c4f"/>
              </g>
              <g id="Group_2693" data-name="Group 2693">
                <path id="Path_1486" data-name="Path 1486" d="M389.782,264.638a.252.252,0,0,1-.232-.158l-15.728-39.137a.25.25,0,1,1,.464-.186L390.015,264.3a.251.251,0,0,1-.233.343Z" fill="#422c4f"/>
              </g>
              <g id="Group_2694" data-name="Group 2694">
                <path id="Path_1487" data-name="Path 1487" d="M384,250.25a.25.25,0,0,1-.19-.413l10.956-12.716a.25.25,0,0,1,.378.326l-10.955,12.716A.246.246,0,0,1,384,250.25Z" fill="#422c4f"/>
              </g>
              <g id="Group_2695" data-name="Group 2695">
                <path id="Path_1488" data-name="Path 1488" d="M325.965,295.614a.215.215,0,0,1-.071-.011,48.4,48.4,0,0,1-19.557-11.434.25.25,0,1,1,.347-.359,47.913,47.913,0,0,0,19.353,11.315.25.25,0,0,1-.072.489Z" fill="#422c4f"/>
              </g>
              <g id="Group_2696" data-name="Group 2696">
                <path id="Path_1489" data-name="Path 1489" d="M319.9,224.266a.25.25,0,0,1-.082-.486l9.655-3.365a.25.25,0,0,1,.165.471l-9.656,3.366A.236.236,0,0,1,319.9,224.266Z" fill="#422c4f"/>
              </g>
            </g>
          </g>
          <g id="Group_2703" data-name="Group 2703">
            <path id="Path_1490" data-name="Path 1490" d="M342.859,350.483a18,18,0,0,0-17.774-15.47l-5.1-.014a8,8,0,0,1-7.828-6.456L295.677,244.76a52.37,52.37,0,0,0-51.384-42.26H227.7l2.643,2.644a38.016,38.016,0,0,0-23.339,42.691l17.43,88.6A23,23,0,0,0,247.006,355H343.5Z" fill="#495375"/>
            <path id="Path_1491" data-name="Path 1491" d="M207.849,336.44l-17.431-88.6A38,38,0,0,1,227.7,202.5h0a52.368,52.368,0,0,1,51.383,42.26l18.036,91.68A23,23,0,0,0,319.69,355H230.416A23,23,0,0,1,207.849,336.44Z" fill="#797c99"/>
            <g id="Group_2699" data-name="Group 2699">
              <path id="Path_1492" data-name="Path 1492" d="M235.333,355h-4.917L229.1,366.788l5.232-2.827Z" fill="#422c4f"/>
              <path id="Path_1493" data-name="Path 1493" d="M229.1,366.788l-8.352,74.879h4.917l8.667-77.705Z" fill="#99a3b0"/>
            </g>
            <g id="Group_2700" data-name="Group 2700">
              <path id="Path_1494" data-name="Path 1494" d="M272,365.479l-8.5,76.188h4.917l8.813-79.015Z" fill="#99a3b0"/>
              <path id="Path_1495" data-name="Path 1495" d="M278.085,355h-4.917L272,365.479l5.232-2.827Z" fill="#422c4f"/>
            </g>
            <g id="Group_2701" data-name="Group 2701">
              <path id="Path_1496" data-name="Path 1496" d="M296.586,355h-4.917l1.2,10.754,4.638-2.505Z" fill="#422c4f"/>
              <path id="Path_1497" data-name="Path 1497" d="M306.253,441.667l-8.747-78.418-4.638,2.505,8.467,75.913Z" fill="#99a3b0"/>
            </g>
            <g id="Group_2702" data-name="Group 2702">
              <path id="Path_1498" data-name="Path 1498" d="M339.338,355h-4.917l1.119,10.031,4.638-2.505Z" fill="#422c4f"/>
              <path id="Path_1499" data-name="Path 1499" d="M349,441.667l-8.827-79.141-4.638,2.505,8.548,76.635Z" fill="#99a3b0"/>
            </g>
          </g>
        </g>
        <g id="Group_2740" data-name="Group 2740">
          <g id="Group_2733" data-name="Group 2733">
            <g id="Group_2706" data-name="Group 2706">
              <path id="Path_1500" data-name="Path 1500" d="M596.337,209.649l8.874-11.367a11.787,11.787,0,0,1,9.289-4.532l-1.942-.343a4,4,0,0,1-3.081-2.619l-5.1-14.6-15.042,7.979,2.2,11.6a4,4,0,0,1-.567,2.913l-9.192,14.261.173.084A11.785,11.785,0,0,0,596.337,209.649Z" fill="#f2c9ad"/>
              <path id="Path_1501" data-name="Path 1501" d="M625.667,304.265,614.5,193.75a11.787,11.787,0,0,0-9.289,4.532l-8.875,11.368a11.784,11.784,0,0,1-14.387,3.371l-.173-.084-14.948,23.192a9.823,9.823,0,0,0-.446,10.07,18.153,18.153,0,0,0,3.005,3.961,17.646,17.646,0,0,1,4.641,15.763L569.833,288Z" fill="#e68799"/>
              <path id="Path_1502" data-name="Path 1502" d="M590.747,191.614c12.135-3.839,14.037-11.443,13.628-15.426l-15.042,7.979Z" fill="#422c4f"/>
              <path id="Path_1503" data-name="Path 1503" d="M608.111,216.1l-1.752,49.877a11,11,0,0,1-10.588,10.607l-23.936.881-2,10.534,55.834,16.265L616.758,216.1Z" fill="#e36b85"/>
              <g id="Group_2705" data-name="Group 2705">
                <path id="Path_1504" data-name="Path 1504" d="M592.362,253.676a.255.255,0,0,1-.061-.008,22.658,22.658,0,0,1-12.583-8.554.25.25,0,0,1,.406-.293,22.148,22.148,0,0,0,12.3,8.363.25.25,0,0,1-.062.492Z" fill="#422c4f"/>
              </g>
            </g>
            <g id="Group_2711" data-name="Group 2711">
              <path id="Path_1505" data-name="Path 1505" d="M619.234,140.88a24.309,24.309,0,0,1,21.746-17.711c3.7-.18,7.68.65,10.266,3.305,2.188,2.245,3.07,5.467,3.348,8.589.491,5.534-.655,11.072-1.91,16.484s-2.631,10.865-2.61,16.42,1.612,11.338,5.532,15.274c-10.21,1.7-20.941-3.377-27.043-11.738S616.649,150.9,619.234,140.88Z" fill="#eba25d"/>
              <path id="Path_1506" data-name="Path 1506" d="M578.292,163.207a24.893,24.893,0,0,1-6.331-14.017,19.272,19.272,0,0,1,1.448-10.12,13.4,13.4,0,0,1,7.255-7.008,10.314,10.314,0,0,1,9.814,1.324,23.066,23.066,0,0,1,30.961,7.352c3.934,6.117,4.711,13.987,2.775,21-1.853,6.705-6.472,12.985-13.066,15.2-5.672,1.906-12.031.582-17.313-2.228S582.331,167.621,578.292,163.207Z" fill="#eba25d"/>
              <g id="Group_2707" data-name="Group 2707">
                <path id="Path_1507" data-name="Path 1507" d="M611.147,177.186a.249.249,0,0,1-.08-.486c5.952-2,10.9-7.76,12.906-15.031a26.115,26.115,0,0,0-2.744-20.8A22.721,22.721,0,0,0,607.34,131.1a.25.25,0,0,1,.113-.488,23.227,23.227,0,0,1,14.2,9.987,26.62,26.62,0,0,1,2.806,21.2c-2.053,7.428-7.121,13.319-13.228,15.371A.244.244,0,0,1,611.147,177.186Z" fill="#422c4f"/>
              </g>
              <g id="Group_2709" data-name="Group 2709">
                <path id="Path_1508" data-name="Path 1508" d="M585.333,144.833h0A27.1,27.1,0,0,0,575.662,161l-.495,2.664-5.5,8.833H575.5l.823,8.647a8.5,8.5,0,0,0,5.567,7.183h0a8.5,8.5,0,0,0,6.373-.24l11.273-5.067a7,7,0,0,0,4.131-6.385v-5.305c-1.964-.848-4.588-2.29-5.472-4.237a8.8,8.8,0,0,1-.363-6.263C592.353,157.4,587.548,150.9,585.333,144.833Z" fill="#f2c9ad"/>
                <g id="Group_2708" data-name="Group 2708">
                  <path id="Path_1509" data-name="Path 1509" d="M606.35,165.127a5.716,5.716,0,0,1,3.344-.718,3.623,3.623,0,0,1,2.787,1.837,4.953,4.953,0,0,1,.174,3.3,13.487,13.487,0,0,1-2.383,5.176,7.7,7.7,0,0,1-3.175,2.633,4.192,4.192,0,0,1-3.984-.352c-1.907-1.41-1.317-4.256-.9-6.225A8.325,8.325,0,0,1,606.35,165.127Z" fill="#f2c9ad"/>
                  <path id="Path_1510" data-name="Path 1510" d="M605.351,175.693a1.784,1.784,0,0,1-1.049-.3c-.882-.652-.432-2.79-.135-4.2a6.338,6.338,0,0,1,3.119-4.295,4.039,4.039,0,0,1,1.846-.52,2.3,2.3,0,0,1,.31.02,1.647,1.647,0,0,1,1.256.757,3.152,3.152,0,0,1,0,1.961,11.507,11.507,0,0,1-2.028,4.407,5.724,5.724,0,0,1-2.32,1.978A2.733,2.733,0,0,1,605.351,175.693Z" fill="#eba58e"/>
                </g>
              </g>
              <g id="Group_2710" data-name="Group 2710">
                <path id="Path_1511" data-name="Path 1511" d="M584.229,157.722a7.124,7.124,0,0,1,5.055,3.833l-11.161-2.116A7.127,7.127,0,0,1,584.229,157.722Z" fill="#422c4f"/>
              </g>
              <circle id="Ellipse_83" data-name="Ellipse 83" cx="1.706" cy="1.706" r="1.706" transform="translate(581.451 162.847)" fill="#422c4f"/>
              <path id="Path_1512" data-name="Path 1512" d="M587.663,177.349a22.991,22.991,0,0,0-10.012,0,5.279,5.279,0,0,0,2.226,2.84,4.473,4.473,0,0,0,3.245.677C584.827,180.557,586.446,178.583,587.663,177.349Z" fill="#fff"/>
            </g>
            <g id="Group_2718" data-name="Group 2718">
              <g id="Group_2712" data-name="Group 2712">
                <path id="Path_1513" data-name="Path 1513" d="M550.644,282.41,616.186,301.5A17,17,0,0,0,637.913,284.2l-1.971-33.976L613,253.5l1.75,29.375-48.233-6.08a17,17,0,0,0-11.591,2.745l-4.282,2.87" fill="#f2c9ad"/>
                <path id="Path_1514" data-name="Path 1514" d="M613,253.5l22.942-3.278.515,8.869c-9.874,2.409-23.164-.677-23.164-.677Z" fill="#422c4f"/>
              </g>
              <path id="Path_1515" data-name="Path 1515" d="M614.5,193.75h0a20.068,20.068,0,0,1,19.881,17.337L640,252c-11.5,5.25-29.149,5-29.149,5l-2.74-40.9a34.3,34.3,0,0,1,5.913-21.655Z" fill="#e68799"/>
              <g id="Group_2713" data-name="Group 2713">
                <path id="Path_1516" data-name="Path 1516" d="M614.5,193.75" fill="none" stroke="#422c4f" stroke-linecap="round" stroke-linejoin="round" stroke-width="0.5"/>
              </g>
              <g id="Group_2714" data-name="Group 2714">
                <path id="Path_1517" data-name="Path 1517" d="M610.433,251.005a.25.25,0,0,1-.249-.234l-2.322-34.653a34.429,34.429,0,0,1,1.417-12.359.254.254,0,0,1,.312-.167.25.25,0,0,1,.167.312,33.961,33.961,0,0,0-1.4,12.18l2.322,34.654a.25.25,0,0,1-.233.266Z" fill="#422c4f"/>
              </g>
              <g id="Group_2715" data-name="Group 2715">
                <path id="Path_1518" data-name="Path 1518" d="M638.882,244.107a.251.251,0,0,1-.248-.216l-4.5-32.769a.25.25,0,0,1,.214-.282.246.246,0,0,1,.282.213l4.5,32.77a.252.252,0,0,1-.214.282Z" fill="#422c4f"/>
              </g>
              <g id="Group_2716" data-name="Group 2716">
                <path id="Path_1519" data-name="Path 1519" d="M623.618,284.243l-.031,0-47.709-6.013a.251.251,0,0,1-.217-.28.244.244,0,0,1,.279-.217l47.709,6.014a.25.25,0,0,1-.031.5Z" fill="#422c4f"/>
              </g>
              <g id="Group_2717" data-name="Group 2717">
                <path id="Path_1520" data-name="Path 1520" d="M620.877,251.136a.25.25,0,0,1-.043-.5,19.327,19.327,0,0,0,8.63-3.845.25.25,0,0,1,.308.393,19.828,19.828,0,0,1-8.852,3.944A.215.215,0,0,1,620.877,251.136Z" fill="#422c4f"/>
              </g>
            </g>
            <g id="Group_2723" data-name="Group 2723">
              <g id="Group_2720" data-name="Group 2720">
                <g id="Group_2719" data-name="Group 2719">
                  <path id="Path_1521" data-name="Path 1521" d="M476.2,395.456l2.156-9.1,6.154-15.146-16.676-6.775-3.351,8.247a14.177,14.177,0,0,1-8.167,7.931,18.6,18.6,0,0,1,.871,7.115Z" fill="#f2c9ad"/>
                  <path id="Path_1522" data-name="Path 1522" d="M457.188,387.732a18.6,18.6,0,0,0-.871-7.115,14.266,14.266,0,0,1-1.9.58l-1.566.346a14.181,14.181,0,0,1-6.059.019l-2.528-.545a14.19,14.19,0,0,0-14.068,5.007L474.2,403.9l2-8.447Z" fill="#e68799"/>
                </g>
                <path id="Path_1523" data-name="Path 1523" d="M467.835,364.439l16.676,6.775L482.158,377l-15.077-10.713Z" fill="#422c4f"/>
              </g>
              <path id="Path_1524" data-name="Path 1524" d="M462.205,362.726,494.75,297.25l25.825,13.271L500.167,379.5Z" fill="#4893d8"/>
              <path id="Path_1525" data-name="Path 1525" d="M625.667,304.265l-98.134-28.588a24,24,0,0,0-28.2,12.36l-4.579,9.213,72,37h31.712a27,27,0,0,0,26.959-25.517Z" fill="#4893d8"/>
              <g id="Group_2721" data-name="Group 2721">
                <path id="Path_1526" data-name="Path 1526" d="M595.435,295.708a.249.249,0,0,1-.071-.01l-63.756-18.573a.25.25,0,1,1,.141-.48l63.756,18.573a.25.25,0,0,1-.07.49Z" fill="#422c4f"/>
              </g>
              <g id="Group_2722" data-name="Group 2722">
                <path id="Path_1527" data-name="Path 1527" d="M625.667,304.516a.242.242,0,0,1-.07-.01l-19.908-5.8a.25.25,0,1,1,.141-.48l19.907,5.8a.251.251,0,0,1-.07.491Z" fill="#422c4f"/>
              </g>
            </g>
            <g id="Group_2732" data-name="Group 2732">
              <g id="Group_2724" data-name="Group 2724">
                <path id="Path_1528" data-name="Path 1528" d="M516.134,308.239l-11.29,2.047a21,21,0,0,0-17.224,19.551L483.5,407.5h44.75l-6.5-70,45-3.25Z" fill="#4893d8"/>
                <path id="Path_1529" data-name="Path 1529" d="M512.834,308.837s32.391,26.968,32.355,26.97l21.561-1.557-50.616-26.011Z" fill="#377fb5"/>
              </g>
              <g id="Group_2729" data-name="Group 2729">
                <g id="Group_2725" data-name="Group 2725">
                  <path id="Path_1530" data-name="Path 1530" d="M488.943,323.776a.236.236,0,0,1-.089-.016.25.25,0,0,1-.144-.322,21.362,21.362,0,0,1,16.089-13.4l11.29-2.047a.247.247,0,0,1,.291.2.251.251,0,0,1-.2.291l-11.29,2.047a20.862,20.862,0,0,0-15.712,13.083A.249.249,0,0,1,488.943,323.776Z" fill="#422c4f"/>
                </g>
                <g id="Group_2726" data-name="Group 2726">
                  <path id="Path_1531" data-name="Path 1531" d="M521.75,337.75a.25.25,0,0,1-.018-.5l36.74-2.653a.239.239,0,0,1,.266.231.249.249,0,0,1-.231.267l-36.739,2.653Z" fill="#422c4f"/>
                </g>
                <g id="Group_2727" data-name="Group 2727">
                  <path id="Path_1532" data-name="Path 1532" d="M484.926,380.867h-.014a.251.251,0,0,1-.236-.264l2.46-46.367a.251.251,0,0,1,.25-.236h.013a.251.251,0,0,1,.237.264l-2.46,46.367A.251.251,0,0,1,484.926,380.867Z" fill="#422c4f"/>
                </g>
                <g id="Group_2728" data-name="Group 2728">
                  <path id="Path_1533" data-name="Path 1533" d="M524.835,370.972a.251.251,0,0,1-.249-.227l-4.038-43.487a.251.251,0,0,1,.225-.273.244.244,0,0,1,.273.226l4.038,43.487a.251.251,0,0,1-.226.273Z" fill="#422c4f"/>
                </g>
              </g>
              <g id="Group_2731" data-name="Group 2731">
                <g id="Group_2730" data-name="Group 2730">
                  <path id="Path_1534" data-name="Path 1534" d="M512.926,433.087l-1.426-9.239V407.5h-18v8.9a14.175,14.175,0,0,1-4.581,10.422,18.585,18.585,0,0,1,3.485,6.263Z" fill="#f2c9ad"/>
                  <path id="Path_1535" data-name="Path 1535" d="M492.4,433.087a18.585,18.585,0,0,0-3.485-6.263,14.14,14.14,0,0,1-1.547,1.254l-1.32.91a14.176,14.176,0,0,1-5.607,2.3l-2.547.447a14.185,14.185,0,0,0-11.148,9.934h47.5l-1.324-8.58Z" fill="#e68799"/>
                </g>
                <path id="Path_1536" data-name="Path 1536" d="M493.5,407.5h18v6.25l-18-4.25Z" fill="#422c4f"/>
              </g>
            </g>
          </g>
          <g id="Group_2739" data-name="Group 2739">
            <g id="Group_2734" data-name="Group 2734">
              <path id="Path_1537" data-name="Path 1537" d="M658.462,352.458h4.917l1.315,11.788-5.232-2.827Z" fill="#422c4f"/>
              <path id="Path_1538" data-name="Path 1538" d="M664.694,364.247l8.352,74.879h-4.917l-8.667-77.705Z" fill="#99a3b0"/>
            </g>
            <g id="Group_2735" data-name="Group 2735">
              <path id="Path_1539" data-name="Path 1539" d="M626.851,362.937l8.5,76.188h-4.917l-8.813-79.015Z" fill="#99a3b0"/>
              <path id="Path_1540" data-name="Path 1540" d="M620.765,352.458h4.917l1.169,10.479-5.232-2.827Z" fill="#422c4f"/>
            </g>
            <g id="Group_2736" data-name="Group 2736">
              <path id="Path_1541" data-name="Path 1541" d="M610.831,352.458h4.917l-1.2,10.754-4.638-2.505Z" fill="#422c4f"/>
              <path id="Path_1542" data-name="Path 1542" d="M601.164,439.125l8.747-78.418,4.638,2.505-8.467,75.913Z" fill="#99a3b0"/>
            </g>
            <g id="Group_2737" data-name="Group 2737">
              <path id="Path_1543" data-name="Path 1543" d="M570.268,352.458h4.917l-1.119,10.031-4.638-2.505Z" fill="#422c4f"/>
              <path id="Path_1544" data-name="Path 1544" d="M560.6,439.125l8.827-79.141,4.638,2.505-8.548,76.635Z" fill="#99a3b0"/>
            </g>
            <g id="Group_2738" data-name="Group 2738">
              <path id="Path_1545" data-name="Path 1545" d="M691.583,207.761v-7.8h-16.8a41.521,41.521,0,0,0-40.74,33.506L617.258,318.8a16,16,0,0,1-15.7,12.912H580.073a20.75,20.75,0,0,0-20.75,20.75h93.295A23,23,0,0,0,675.185,333.9l21.186-107.693A21.894,21.894,0,0,0,691.583,207.761Z" fill="#797c99"/>
              <path id="Path_1546" data-name="Path 1546" d="M691.984,333.9,713.17,226.205a22,22,0,0,0-21.586-26.247h0a41.521,41.521,0,0,0-40.74,33.506L631.086,333.9a23,23,0,0,1-22.568,18.561h60.9A23,23,0,0,0,691.984,333.9Z" fill="#495375"/>
            </g>
          </g>
        </g>
      </g>
    </g>
  </g>
</svg>
