<svg xmlns="http://www.w3.org/2000/svg" xmlns:xlink="http://www.w3.org/1999/xlink" width="117.341" height="117.341" viewBox="0 0 117.341 117.341">
  <defs>
    <filter id="Rectangle_3" x="0" y="0" width="117.341" height="117.341" filterUnits="userSpaceOnUse">
      <feOffset dx="8" dy="8" input="SourceAlpha"/>
      <feGaussianBlur stdDeviation="7.5" result="blur"/>
      <feFlood flood-opacity="0.059"/>
      <feComposite operator="in" in2="blur"/>
      <feComposite in="SourceGraphic"/>
    </filter>
  </defs>
  <g id="Group_3002" data-name="Group 3002" transform="translate(-1129.655 -321.83)">
    <g transform="matrix(1, 0, 0, 1, 1129.66, 321.83)" filter="url(#Rectangle_3)">
      <rect id="Rectangle_3-2" data-name="Rectangle 3" width="72.341" height="72.341" rx="10" transform="translate(14.5 14.5)" fill="#ffb703"/>
    </g>
    <g id="megaphone" transform="matrix(0.883, -0.469, 0.469, 0.883, 1153.801, 367.11)">
      <g id="Group_4" data-name="Group 4" transform="translate(0 0)">
        <g id="Group_3" data-name="Group 3">
          <path id="Path_19" data-name="Path 19" d="M0,3.655A3.856,3.856,0,0,0,2.5,7.311V.351c0-.1.05-.25.05-.351A3.906,3.906,0,0,0,0,3.655Z" transform="translate(0 10.566)" fill="#fff"/>
          <path id="Path_20" data-name="Path 20" d="M6.56,0H0L2.454,8.913a3.1,3.1,0,0,0,3,2.3A3.155,3.155,0,0,0,8.012,9.965a2.9,2.9,0,0,0,.5-2.7Z" transform="translate(7.111 22.834)" fill="#fff"/>
          <path id="Path_21" data-name="Path 21" d="M0,.05H.05V0C.05.05.05.05,0,.05Z" transform="translate(2.554 10.466)" fill="#fff"/>
          <path id="Path_22" data-name="Path 22" d="M.4,0H0V9.014H.4A4.507,4.507,0,0,0,.4,0Z" transform="translate(38.057 9.815)" fill="#fff"/>
          <path id="Path_23" data-name="Path 23" d="M0,3.1v7.111A3.405,3.405,0,0,0,3.405,13.52h9.114V0H3.405A3.256,3.256,0,0,0,0,3.1Z" transform="translate(4.006 7.812)" fill="#fff"/>
          <path id="Path_24" data-name="Path 24" d="M0,21.532l18.528,7.411V0L0,7.411Z" transform="translate(18.027)" fill="#fff"/>
        </g>
      </g>
    </g>
  </g>
</svg>
