<svg xmlns="http://www.w3.org/2000/svg" width="43.214" height="28.167" viewBox="0 0 43.214 28.167">
  <g id="Group_2588" data-name="Group 2588" transform="translate(0 0)">
    <path id="md-videocam" d="M36.2,18.3V10.079a2.378,2.378,0,0,0-2.4-2.345H4.652a2.379,2.379,0,0,0-2.4,2.345V33.547a2.387,2.387,0,0,0,2.4,2.354H33.8a2.384,2.384,0,0,0,2.4-2.345V25.338l9.26,9.385V8.911L36.2,18.3Z" transform="translate(-2.25 -7.734)" fill="#da1e37"/>
    <path id="Path_47" data-name="Path 47" d="M19.133-1.662H11.49V6.053H8.267V-1.662H.66V-4.668H8.267V-12.42H11.49v7.752h7.643Z" transform="translate(6.801 17.267)" fill="#fff"/>
  </g>
</svg>
