<svg xmlns="http://www.w3.org/2000/svg" xmlns:xlink="http://www.w3.org/1999/xlink" width="480" height="934" viewBox="0 0 480 934">
  <defs>
    <filter id="Rectangle_569" x="0" y="0" width="480" height="934" filterUnits="userSpaceOnUse">
      <feOffset dx="20" dy="3" input="SourceAlpha"/>
      <feGaussianBlur stdDeviation="15" result="blur"/>
      <feFlood flood-opacity="0.2"/>
      <feComposite operator="in" in2="blur"/>
      <feComposite in="SourceGraphic"/>
    </filter>
    <filter id="Rectangle_570" x="0" y="0" width="480" height="934" filterUnits="userSpaceOnUse">
      <feOffset dx="20" dy="3" input="SourceAlpha"/>
      <feGaussianBlur stdDeviation="15" result="blur-2"/>
      <feFlood flood-opacity="0.2"/>
      <feComposite operator="in" in2="blur-2"/>
      <feComposite in="SourceGraphic"/>
    </filter>
  </defs>
  <g id="Group_366" data-name="Group 366" transform="translate(-141 -104)">
    <g transform="matrix(1, 0, 0, 1, 141, 104)" filter="url(#Rectangle_569)">
      <rect id="Rectangle_569-2" data-name="Rectangle 569" width="390" height="844" rx="30" transform="translate(25 42)" fill="#0f1d2d"/>
    </g>
    <g transform="matrix(1, 0, 0, 1, 141, 104)" filter="url(#Rectangle_570)">
      <g id="Rectangle_570-2" data-name="Rectangle 570" transform="translate(25 42)" fill="#f9f9f9" stroke="#0f1d2d" stroke-width="15">
        <rect width="390" height="844" rx="35" stroke="none"/>
        <rect x="7.5" y="7.5" width="375" height="829" rx="27.5" fill="none"/>
      </g>
    </g>
    <rect id="Rectangle_571" data-name="Rectangle 571" width="8" height="51" rx="4" transform="translate(159 265)" fill="#0f1d2d"/>
    <rect id="Rectangle_572" data-name="Rectangle 572" width="8" height="97" rx="4" transform="translate(159 386)" fill="#0f1d2d"/>
    <rect id="Rectangle_573" data-name="Rectangle 573" width="8" height="97" rx="4" transform="translate(159 493)" fill="#0f1d2d"/>
    <path id="Rectangle_574" data-name="Rectangle 574" d="M0,0H187a0,0,0,0,1,0,0V22a23,23,0,0,1-23,23H23A23,23,0,0,1,0,22V0A0,0,0,0,1,0,0Z" transform="translate(268 146)" fill="#0f1d2d"/>
    <circle id="Ellipse_599" data-name="Ellipse 599" cx="9" cy="9" r="9" transform="translate(283 163)" fill="#fff"/>
    <g id="Group_365" data-name="Group 365" transform="translate(16)">
      <circle id="Ellipse_600" data-name="Ellipse 600" cx="2" cy="2" r="2" transform="translate(330 170)" fill="#fff"/>
      <circle id="Ellipse_601" data-name="Ellipse 601" cx="2" cy="2" r="2" transform="translate(337 170)" fill="#fff"/>
      <circle id="Ellipse_602" data-name="Ellipse 602" cx="2" cy="2" r="2" transform="translate(344 170)" fill="#fff"/>
      <circle id="Ellipse_603" data-name="Ellipse 603" cx="2" cy="2" r="2" transform="translate(351 170)" fill="#fff"/>
      <circle id="Ellipse_604" data-name="Ellipse 604" cx="2" cy="2" r="2" transform="translate(358 170)" fill="#fff"/>
    </g>
    <circle id="Ellipse_605" data-name="Ellipse 605" cx="7" cy="7" r="7" transform="translate(285 165)" fill="#313131"/>
  </g>
</svg>
